<svg xmlns="http://www.w3.org/2000/svg" width="43.198" height="36.479" viewBox="0 0 43.198 36.479">
  <path id="Path_47101" data-name="Path 47101" d="M1723.355,272.238h43.2v36.479h-43.2Zm3.309,2.761v3.3h3.31V275Zm0,6.061v24.293h36.58V281.06Zm16.277,7.747h3.957l.541,2.16a3.144,3.144,0,0,0,1.986,2.224,3.235,3.235,0,0,0,2.941-.429l1.748-1.318,3.067,2.589-.97,1.922a3.141,3.141,0,0,0,.064,3,3.257,3.257,0,0,0,2.527,1.556l2.225.175.477,3.066h-9.186a7.55,7.55,0,0,0-14.779,0h-9.2l.477-3.066,2.225-.175a3.257,3.257,0,0,0,2.527-1.556,3.146,3.146,0,0,0,.064-3l-.97-1.922,3.067-2.589,1.748,1.318a3.25,3.25,0,0,0,2.941.429,3.111,3.111,0,0,0,1.986-2.224Z" transform="translate(-1723.354 -272.238)" fill="#fff" fill-rule="evenodd"/>
</svg>
