<svg xmlns="http://www.w3.org/2000/svg" width="37.5" height="37.501" viewBox="0 0 37.5 37.501">
  <path id="Path_47102" data-name="Path 47102" d="M1740.549,405.355h2.693l.719,3.831a15.015,15.015,0,0,1,3.61.966l2.53-2.959,2.336,1.35-1.295,3.677a15.24,15.24,0,0,1,2.642,2.637l3.675-1.294,1.35,2.335-2.956,2.536a14.932,14.932,0,0,1,.966,3.605l3.828.72v2.7l-3.828.712a14.939,14.939,0,0,1-.966,3.613l2.956,2.533-1.35,2.335-3.675-1.294a15.242,15.242,0,0,1-2.642,2.637l1.295,3.675-2.336,1.352-2.53-2.955a15.007,15.007,0,0,1-3.61.962l-.719,3.831h-2.693l-.716-3.831a14.9,14.9,0,0,1-3.61-.968l-2.535,2.961-2.336-1.352,1.295-3.675a15.142,15.142,0,0,1-2.638-2.637l-3.677,1.294-1.35-2.335,2.955-2.533a15.131,15.131,0,0,1-.962-3.613l-3.828-.712v-2.7l3.828-.72a15.124,15.124,0,0,1,.962-3.605l-2.955-2.536,1.35-2.335,3.677,1.294a15.14,15.14,0,0,1,2.638-2.637l-1.295-3.677,2.336-1.35,2.535,2.959a15.013,15.013,0,0,1,3.61-.966Zm1.347,6.237a12.516,12.516,0,1,0,12.518,12.515A12.517,12.517,0,0,0,1741.9,411.592Zm0,6.482a3.234,3.234,0,0,1,1.259,6.213l-.1.031v6.188h-2.32v-6.188l-.1-.031a3.234,3.234,0,0,1,1.259-6.213Zm0,1.617a1.617,1.617,0,0,0-.326,3.2l.257.026h.139l.257-.026a1.617,1.617,0,0,0-.326-3.2Z" transform="translate(-1723.146 -405.355)" fill="#fff" fill-rule="evenodd"/>
</svg>
