<svg xmlns="http://www.w3.org/2000/svg" width="45.033" height="19.814" viewBox="0 0 45.033 19.814">
  <path id="Path_47103" data-name="Path 47103" d="M1734.257,559.536c5.945,0,9.059-4.683,12.079-9.188,2.878-4.236,5.567-8.25,10.333-8.25,4.813,0,8.587,3.032,8.776,7.18a7.714,7.714,0,0,1-7.125,7.8,8.066,8.066,0,0,1-7.03-2.81l-.849-.892-1.935,1.472.755.936a10.777,10.777,0,0,0,8.21,3.747,4.862,4.862,0,0,0,1.132-.089c5.426-.536,9.626-5.129,9.343-10.258-.236-5.4-5.1-9.455-11.277-9.455-6.134,0-9.389,4.727-12.456,9.321-2.784,4.148-5.379,8.117-9.956,8.117-4.812,0-8.587-3.166-8.776-7.225a7.755,7.755,0,0,1,7.172-7.8,8.032,8.032,0,0,1,6.364,2.058l.321.341-1.981,1.864,5.843.248-.264-5.5-1.834,1.727-.358-.385a10.5,10.5,0,0,0-7.036-2.773,11.562,11.562,0,0,0-1.338.056c-5.426.535-9.625,5.128-9.437,10.257C1723.169,555.433,1728.076,559.536,1734.257,559.536Z" transform="translate(-1722.927 -539.722)" fill="#fff" fill-rule="evenodd"/>
</svg>
