<svg xmlns="http://www.w3.org/2000/svg" width="45.787" height="35.833" viewBox="0 0 45.787 35.833">
  <path id="Path_47104" data-name="Path 47104" d="M1727.014,672.328h37.9V696.7h.064l3.838,2.991h.04v1.962h-9.469l-3.1-2.8h8.58l-1.707-1.492h-8.523l-2.232-2.023h10.578V674.155h-34.048v21.182h6.812a7.877,7.877,0,0,0,1.455,2.023h-8.444l-1.711,1.492h12.262a7.765,7.765,0,0,0,5.022.591l2.136,2.213h-23.4v-1.962h.044l3.872-2.991h.026Zm4.473,4.04h13.4v6.449h-13.4Zm15.506,0h13.451v2.271h-13.451Zm0,4.178h13.451v2.271h-13.451Zm-4.219,5.418a5.966,5.966,0,0,1,5.647,7.685.558.558,0,0,0,.151.559v0l9.885,8.95.014.013a2.9,2.9,0,0,1,.056,4.11,2.943,2.943,0,0,1-4.147.044l-.009-.009-9.262-9.579-.005-.005a.558.558,0,0,0-.564-.138,6.006,6.006,0,0,1-6.04-1.409,5.942,5.942,0,0,1-1.779-4.717.505.505,0,0,1,.335-.441.521.521,0,0,1,.541.112l2.7,2.637a.553.553,0,0,0,.559.13l2.622-.856a.554.554,0,0,0,.356-.363l.808-2.632a.547.547,0,0,0-.142-.551l-2.7-2.634a.5.5,0,0,1-.125-.541.514.514,0,0,1,.434-.34A6.355,6.355,0,0,1,1742.774,685.964Zm13.726,18.374a1.087,1.087,0,0,0-.76.323,1.081,1.081,0,1,0,.76-.323Z" transform="translate(-1723.072 -672.328)" fill="#fff" fill-rule="evenodd"/>
</svg>
