<svg id="Group_13481" data-name="Group 13481" xmlns="http://www.w3.org/2000/svg" width="53.567" height="34.932" viewBox="0 0 53.567 34.932">
  <path id="Path_46985" data-name="Path 46985" d="M2005.1,425.436h0a1.726,1.726,0,0,0-.326-.434l.886-2.828a.73.73,0,0,0,.158.018,1.306,1.306,0,0,0,1.081-.6l3.508,1.637a1.409,1.409,0,0,0-.015.255v.116Zm-3.667-5.963h0a1.606,1.606,0,0,0,.261-.307l2.748,1.284a1.545,1.545,0,0,0-.011.162,1.629,1.629,0,0,0,.648,1.324l-.857,2.754a1.245,1.245,0,0,0-.326-.046,1.04,1.04,0,0,0-.306.04Zm5.548.283h0l3.626-4.229a1.238,1.238,0,0,0,.459.227l.321,6.218a1.431,1.431,0,0,0-.745.6l-3.473-1.614a1.924,1.924,0,0,0,.035-.347A1.75,1.75,0,0,0,2006.982,419.756Zm3.2-4.744h0l-3.64,4.258a1.213,1.213,0,0,0-.556-.22l-.418-4.523a1.5,1.5,0,0,0,.754-.833l3.692.74A1.771,1.771,0,0,0,2010.184,415.012Zm-8.434,2.371h0l2.581-2.972a1.316,1.316,0,0,0,.627.225l.419,4.483a1.46,1.46,0,0,0-.735.659l-2.7-1.249a1.864,1.864,0,0,0,.02-.3A1.81,1.81,0,0,0,2001.75,417.384ZM2012,421.931h0l-.321-6.166a1.554,1.554,0,0,0,1.1-1.544,1.489,1.489,0,0,0-1.392-1.568,1.412,1.412,0,0,0-1.316,1.081l-3.636-.728a1.394,1.394,0,1,0-2.769.064,1.681,1.681,0,0,0,.219.85l-2.58,2.979a1.238,1.238,0,0,0-.724-.243,1.588,1.588,0,0,0,0,3.153,1.27,1.27,0,0,0,.295-.041l2.163,5.219a1.649,1.649,0,0,0-.536,1.237,1.4,1.4,0,1,0,2.78,0c0-.04-.006-.08-.006-.116l5.294-1.839a1.377,1.377,0,0,0,1.2.787,1.491,1.491,0,0,0,1.387-1.573A1.529,1.529,0,0,0,2012,421.931Z" transform="translate(-1989.872 -404.501)" fill="#fff" fill-rule="evenodd"/>
  <path id="Path_46986" data-name="Path 46986" d="M2040.2,437.168h-44.242l2.008-1.788h40.248Zm-42.035-29.43H2038v25.237h-39.838Zm46.659,30.426-4.491-3.567h-.077V405.569h-44.343V434.6h-.033l-4.535,3.567h-.045V440.5h53.567v-2.336Z" transform="translate(-1991.296 -405.569)" fill="#fff" fill-rule="evenodd"/>
  <path id="Path_46987" data-name="Path 46987" d="M2027.687,411.49a1.27,1.27,0,0,1,0,2.539.6.6,0,0,1-.432-.094l-3.126,3.254a1.343,1.343,0,0,1,.078.549,1.2,1.2,0,1,1-2.368,0,1.194,1.194,0,0,1,.089-.549l-1.358-1.432a1.093,1.093,0,0,1-.511.084,1.119,1.119,0,0,1-.511-.084l-2.279,2.433a.711.711,0,0,1,.167.453,1.235,1.235,0,1,1-2.458,0,1.264,1.264,0,0,1,1.19-1.275c.255,0,.334.1.511.1l2.281-2.35a1.294,1.294,0,0,1-.079-.548,1.187,1.187,0,1,1,2.369,0,1.167,1.167,0,0,1-.089.548l1.356,1.444a.989.989,0,0,1,.511-.094.953.953,0,0,1,.5.094l3.057-3.256c0-.179-.088-.368-.088-.548A1.247,1.247,0,0,1,2027.687,411.49Zm-1.669,5.026h2.937v8.934h-2.937Zm-7.3,1.912h2.936v7.035h-2.936Zm3.648,1.786h2.937v5.253h-2.937Zm-7.3,1.183h2.936v4.013h-2.936Z" transform="translate(-1987.024 -404.501)" fill="#fff" fill-rule="evenodd"/>
</svg>
