<svg xmlns="http://www.w3.org/2000/svg" width="20.368" height="37.342" viewBox="0 0 20.368 37.342">
  <path id="Path_47106" data-name="Path 47106" d="M2013.5,567.689v-7.295c2.071.933,3.049,1.9,3.049,3.535A3.9,3.9,0,0,1,2013.5,567.689Zm-1.358-14.1c-2.113-.925-3.173-2.17-3.173-3.708a3.63,3.63,0,0,1,3.173-3.449Zm1.946.752v-7.909a4.683,4.683,0,0,1,3.686,2.6l3.811-3.622a9.09,9.09,0,0,0-7.5-3.89v-2.515h-1.946v2.472c-5.881.492-9.484,4.071-9.484,8.488,0,4.374,2.924,6.941,8.855,9.544v8.4a5.817,5.817,0,0,1-5.674-3.587l-3.6,4.028c1.566,2.827,4.747,4.5,9.278,4.633v3.362h1.988v-3.406c5.715-.527,9.1-4.244,9.1-9.188C2022.608,559.694,2019.858,556.772,2014.092,554.343Z" transform="translate(-2002.239 -539.009)" fill="#fff" fill-rule="evenodd"/>
</svg>
