<svg xmlns="http://www.w3.org/2000/svg" width="39.09" height="35.833" viewBox="0 0 39.09 35.833">
  <path id="Path_47107" data-name="Path 47107" d="M2011.065,672.328a5.044,5.044,0,0,1,5.133,4.936v.009l2.279.894a15.8,15.8,0,0,1,5.564,4.535l.081.1.507-.152a5.2,5.2,0,0,1,1.02-.1,5.03,5.03,0,0,1,5.134,4.878,4.951,4.951,0,0,1-3.138,4.567l-.337.1,0,.076-.015.363a14.79,14.79,0,0,1-2.632,7.774l-.218.326.467.657a4.737,4.737,0,0,1,.405,1.929,5.177,5.177,0,0,1-8.762,3.489l-.088-.128-.1.031-.113.034a15.951,15.951,0,0,1-5.09.815,15.6,15.6,0,0,1-2.657-.229l-2.518-.665-.1.142a5.22,5.22,0,0,1-3.628,1.448,5.036,5.036,0,0,1-5.093-4.937,4.75,4.75,0,0,1,.4-1.929l.38-.538-.1-.139-.216-.307a15.532,15.532,0,0,1-2.559-7.774l-.037-.466L1994.8,692a4.894,4.894,0,0,1,1.95-9.446,5.439,5.439,0,0,1,1.046.1l.346.1.078-.1.069-.088a15.735,15.735,0,0,1,7.519-5.33l.176-.052.1-.913A5.082,5.082,0,0,1,2011.065,672.328Zm0,2.1a2.84,2.84,0,1,0,2.951,2.838A2.912,2.912,0,0,0,2011.065,674.426Zm-4.766,4.517-1.811.772a14.623,14.623,0,0,0-2.6,1.7l-2.121,2.167.642.411a4.731,4.731,0,0,1,1.511,3.441,5,5,0,0,1-4.128,4.855l-.881.085,0,.1a13.244,13.244,0,0,0,2.253,6.881l.032.046,1.083-.694a5.314,5.314,0,0,1,1.973-.377,4.988,4.988,0,0,1,5.134,4.9,4.745,4.745,0,0,1-.1.994l-.252.779,1.14.307a15.223,15.223,0,0,0,5.226.157l2.036-.459-.246-.784a4.905,4.905,0,0,1,4.952-5.891,5.518,5.518,0,0,1,2.019.377l1.016.641.908-1.6a13.239,13.239,0,0,0,1.373-5.238l.005-.137-.832-.082a5,5,0,0,1-4.074-4.855,4.763,4.763,0,0,1,1.5-3.441l.441-.287-2.171-2.205a14.191,14.191,0,0,0-2.7-1.726l-1.792-.713-.039.118a5.209,5.209,0,0,1-9.42,0Zm-9.554,5.661a2.866,2.866,0,1,0,2.951,2.827A2.881,2.881,0,0,0,1996.746,684.6Zm28.9,0a2.866,2.866,0,1,0,2.951,2.827A2.933,2.933,0,0,0,2025.649,684.6Zm-14.578,1.278a5.976,5.976,0,1,1-6.194,6.005A6.128,6.128,0,0,1,2011.071,685.882Zm0,1.824a4.256,4.256,0,0,0-4.36,4.181,4.364,4.364,0,0,0,8.72,0A4.234,4.234,0,0,0,2011.071,687.706Zm-8.817,12.681a2.912,2.912,0,0,0-2.951,2.837,2.955,2.955,0,0,0,5.9,0A2.886,2.886,0,0,0,2002.254,700.387Zm17.885,0a2.9,2.9,0,0,0-2.911,2.837,2.934,2.934,0,0,0,5.862,0A2.886,2.886,0,0,0,2020.139,700.387Z" transform="translate(-1991.692 -672.328)" fill="#fff" fill-rule="evenodd"/>
</svg>
